<svg width="431" height="293" viewBox="0 0 431 293" fill="none" xmlns="http://www.w3.org/2000/svg">
<g clip-path="url(#clip0)">
<path d="M386.326 196.029C381.911 197.4 374.234 198.315 365.373 198.909C341.281 200.531 308.419 199.832 308.419 199.832C308.419 199.832 139.025 204.996 15.3469 146.291C15.3469 146.291 -2.53367 135.678 15.2031 123.586C17.9313 121.783 20.8128 120.224 23.8143 118.928L24.0336 118.73C26.0677 117.037 28.2491 115.529 30.5516 114.225C37.3222 110.329 48.643 105.884 61.9842 108.867L391.167 180.02C391.167 180.02 402.755 190.913 386.326 196.029Z" fill="#FFBA08"/>
<path d="M321.453 168.199L393.542 122.478L423.896 129.387L391.167 180.02C391.167 180.02 321.796 176.941 321.453 168.199Z" fill="#FFBA08"/>
<path opacity="0.03" d="M94.3719 73.495C93.1349 73.19 91.835 73.2629 90.6398 73.7044C89.9251 73.9766 89.1619 74.0972 88.3983 74.0587C87.6261 74.018 86.8715 73.8131 86.1846 73.4576C85.3745 73.0511 84.4859 72.8255 83.5801 72.7965C82.6743 72.7675 81.773 72.9357 80.9385 73.2895C80.4626 73.5113 79.94 73.6137 79.4157 73.588C77.292 73.4767 75.6353 71.2402 75.4153 68.3981C75.8552 68.1091 76.2366 67.7395 76.5394 67.3087C77.8862 65.3632 79.8823 64.1771 82.0326 64.2898C84.1829 64.4025 86.0359 65.7769 87.1822 67.8264C87.5232 68.4492 88.02 68.9726 88.624 69.3453C89.228 69.7179 89.9184 69.9269 90.6275 69.9519L90.6851 69.9549C92.3566 70.0425 93.7618 71.4781 94.3719 73.495Z" fill="black"/>
<path d="M249.101 27.489L241.978 31.4951L246.553 24.111C245.42 23.1044 243.984 22.5045 242.472 22.4062L242.361 22.4004C241.882 22.3847 241.406 22.3239 240.939 22.219L238.529 23.5792L239.622 21.8118C238 21.1446 236.63 19.9827 235.706 18.4911L231.394 20.9355L234.28 16.2712C231.995 13.2096 228.799 11.2396 225.177 11.0498C220.837 10.8223 216.835 13.2028 214.128 17.1021C213.324 18.2701 212.226 19.2043 210.945 19.8095C209.664 20.4147 208.245 20.6693 206.834 20.5474L206.603 20.5353C201.811 20.2841 197.642 25.5176 197.29 32.2285C196.938 38.9394 200.537 44.58 205.33 44.8312C206.383 44.883 207.433 44.6768 208.389 44.2305C210.062 43.5235 211.869 43.1883 213.684 43.2481C215.499 43.3079 217.28 43.7612 218.903 44.5767C220.273 45.2814 221.777 45.6893 223.315 45.7737C224.853 45.8582 226.392 45.6174 227.831 45.0669C229.516 44.4384 231.316 44.1797 233.11 44.3082C234.903 44.4368 236.648 44.9496 238.227 45.812C239.125 46.3432 240.138 46.6511 241.18 46.71C245.973 46.9612 250.142 41.7277 250.494 35.0168C250.668 32.4302 250.189 29.8416 249.101 27.489Z" fill="#F5F8FA"/>
<path d="M76.2191 199.839L69.0959 203.845L73.6709 196.461C72.5378 195.454 71.1019 194.854 69.59 194.756L69.4792 194.75C69.0006 194.734 68.5245 194.674 68.0572 194.569L65.6474 195.929L66.7403 194.161C65.1186 193.494 63.7483 192.332 62.8242 190.841L58.5126 193.285L61.3979 188.621C59.1131 185.559 55.9175 183.589 52.2953 183.399C47.9547 183.172 43.9532 185.553 41.2459 189.452C40.4424 190.62 39.3442 191.554 38.063 192.159C36.7818 192.764 35.3634 193.019 33.952 192.897L33.7215 192.885C28.9287 192.634 24.7599 197.867 24.4082 204.578C24.0565 211.289 27.6554 216.93 32.4482 217.181C33.5015 217.233 34.5516 217.027 35.5073 216.58C37.1806 215.873 38.9872 215.538 40.8024 215.598C42.6176 215.658 44.3981 216.111 46.0213 216.926C47.3916 217.631 48.8948 218.039 50.4331 218.123C51.9714 218.208 53.5102 217.967 54.9494 217.417C56.6344 216.788 58.4346 216.529 60.2281 216.658C62.0216 216.787 63.7665 217.299 65.3447 218.162C66.2435 218.693 67.2564 219.001 68.2986 219.06C73.0913 219.311 77.2601 214.077 77.6118 207.367C77.7857 204.78 77.3068 202.191 76.2191 199.839Z" fill="#F5F8FA"/>
<path opacity="0.03" d="M235.201 44.5853C232.722 43.9798 230.12 44.1254 227.723 45.0034C226.287 45.559 224.749 45.8046 223.211 45.724C221.673 45.6434 220.169 45.2384 218.799 44.5357C217.176 43.7181 215.395 43.2637 213.58 43.2039C211.764 43.1441 209.957 43.4804 208.285 44.1894C207.327 44.6342 206.276 44.8402 205.221 44.7899C200.965 44.5668 197.647 40.0848 197.208 34.3828C198.092 33.8083 198.856 33.0667 199.457 32.1996C202.164 28.3048 206.165 25.9243 210.506 26.1518C214.846 26.3792 218.54 29.1096 220.822 33.2348C221.505 34.4811 222.498 35.5291 223.705 36.2765C224.913 37.0238 226.293 37.4451 227.712 37.4991L227.823 37.5049C231.189 37.6724 233.981 40.5425 235.201 44.5853Z" fill="black"/>
<path opacity="0.03" d="M62.3191 216.935C59.8404 216.33 57.2378 216.475 54.8416 217.353C53.4049 217.909 51.8672 218.154 50.3291 218.074C48.7911 217.993 47.2875 217.588 45.9167 216.885C44.2942 216.068 42.5134 215.613 40.6979 215.554C38.8824 215.494 37.0755 215.83 35.4027 216.539C34.4449 216.984 33.3938 217.19 32.3392 217.14C28.0829 216.917 24.7656 212.435 24.3264 206.733C25.2105 206.158 25.9742 205.416 26.5748 204.549C29.2819 200.655 33.2834 198.274 37.624 198.501C41.9645 198.729 45.6581 201.459 47.9405 205.585C48.6228 206.831 49.6161 207.879 50.8236 208.626C52.0312 209.374 53.4116 209.795 54.8303 209.849L54.9412 209.855C58.3068 210.022 61.0995 212.892 62.3191 216.935Z" fill="black"/>
</g>
<defs>
<clipPath id="clip0">
<rect width="417.147" height="270.744" fill="white" transform="translate(14.42) rotate(3)"/>
</clipPath>
</defs>
</svg>
